<svg xmlns="http://www.w3.org/2000/svg"  viewBox="0 0 40 40" width="480px" height="480px" baseProfile="basic"><path fill="#fff" d="M32.999,13.16c0.895-6.952-0.783-8.953-1.601-9.131c-2.657-0.579-6.475,2.124-8.003,3.272 c-1.24-0.265-2.526-0.421-3.852-0.421c-2.449,0-4.736,0.494-6.769,1.348c-1.265-0.646-4.2-1.961-6.462-1.559 c-0.501,0.089-3.053,2.739-0.72,7.901c-0.89,1.676-1.397,3.532-1.397,5.486c0,7.219,6.033,11.066,15.772,11.068 c9.315,0.002,15.454-3.849,15.454-11.068C35.42,17.534,34.52,15.174,32.999,13.16z"/><path fill="#788b9c" d="M19.973,31.625c-0.003,0-0.004,0-0.007,0C9.625,31.623,3.694,27.406,3.694,20.057 c0-1.897,0.452-3.747,1.343-5.504C3.517,11.031,4.229,8.71,4.799,7.628c0.417-0.79,0.989-1.373,1.425-1.45 c2.248-0.402,5.002,0.722,6.571,1.501c3.228-1.306,6.761-1.663,10.481-0.912c3.469-2.574,6.234-3.663,8.229-3.226 c1.158,0.252,2.871,2.535,2.016,9.482c1.57,2.145,2.399,4.572,2.399,7.033c0,3.649-1.539,6.642-4.449,8.653 C28.711,30.617,24.734,31.625,19.973,31.625z M7.217,7.095c-0.28,0-0.555,0.021-0.817,0.067c-0.33,0.161-2.461,2.539-0.352,7.202 l0.101,0.224l-0.115,0.217c-0.889,1.675-1.339,3.441-1.339,5.252c0,6.715,5.566,10.566,15.271,10.568c0.002,0,0.005,0,0.007,0 c4.558,0,8.337-0.946,10.93-2.737c2.666-1.843,4.018-4.478,4.018-7.831c0-2.305-0.802-4.585-2.32-6.595l-0.122-0.163l0.025-0.202 c0.864-6.717-0.735-8.476-1.211-8.579c-1.678-0.361-4.379,0.765-7.596,3.184l-0.183,0.137l-0.223-0.047 c-3.687-0.788-7.163-0.429-10.323,0.898l-0.214,0.09l-0.207-0.105C11.55,8.164,9.216,7.095,7.217,7.095z"/><path fill="#788b9c" d="M1.243,23.146l-0.236-0.973c3.521-0.854,5.866-0.755,5.963-0.749l-0.047,0.998	C6.9,22.421,4.614,22.327,1.243,23.146z"/><path fill="#788b9c" d="M3.194,26.679l-0.54-0.842c0.063-0.041,1.598-1.012,4.52-1.553l0.182,0.982	C4.646,25.769,3.209,26.67,3.194,26.679z"/><path fill="#788b9c" d="M4.879,30.625l-0.735-0.678c0.05-0.055,1.269-1.358,4.908-3.179l0.447,0.895	C6.058,29.384,4.89,30.612,4.879,30.625z"/><path fill="#ffb5d2" d="M26.846,8.374c0,0-0.847-4.128-4.128-4.552c0,0-2.011-0.318-3.599,3.916c0,0-1.27,3.916,1.27,5.081 c0,0,1.694,0.635,4.869-0.953L26.846,8.374z"/><path fill="#ea4c89" d="M21.371,13.442c-0.728,0-1.122-0.141-1.157-0.154c-2.943-1.348-1.628-5.525-1.57-5.703 c1.72-4.586,4.053-4.271,4.153-4.256c3.58,0.461,4.502,4.762,4.54,4.944l0.032,0.159l-1.729,3.803l-0.158,0.079 C23.648,13.231,22.261,13.442,21.371,13.442z M20.598,12.365c0.01,0,1.514,0.471,4.28-0.868l1.442-3.173 c-0.187-0.708-1.116-3.677-3.665-4.005c-0.023,0.009-1.671-0.126-3.068,3.596C19.584,7.928,18.495,11.402,20.598,12.365 C20.598,12.365,20.598,12.365,20.598,12.365z"/><path fill="#ffb5d2" d="M28.858,9.433c0,0,3.493-1.694,5.081-0.318c1.588,1.376,1.164,3.493,0,5.187 c-0.782,1.137-1.905,2.011-3.175,1.905s-2.54-0.953-3.281-2.964L28.858,9.433z"/><path fill="#66798f" d="M30.966,16.716c-0.082,0-0.163-0.004-0.245-0.011c-0.962-0.08-2.723-0.613-3.708-3.289l-0.063-0.171 l1.507-4.174l0.184-0.089c0.153-0.075,3.811-1.821,5.626-0.245c1.587,1.375,1.619,3.615,0.085,5.848 C33.411,15.951,32.189,16.716,30.966,16.716z M28.015,13.238c0.597,1.495,1.582,2.37,2.789,2.471 c1.354,0.122,2.347-1.146,2.723-1.69c0.465-0.676,1.845-3.001,0.085-4.525c-1.029-0.892-3.338-0.145-4.354,0.306L28.015,13.238z"/><path fill="#788b9c" d="M33.139,19.753l-0.307-0.951c0.138-0.045,3.425-1.095,6.366-0.654l-0.146,0.988	C36.343,18.737,33.171,19.744,33.139,19.753z"/><path fill="#788b9c" d="M38.196,22.945c-1.844-0.307-4.233-0.311-4.258-0.311v-1c0.102,0,2.498,0.004,4.422,0.324	L38.196,22.945z"/><path fill="#788b9c" d="M37.405,27.231c-2.432-1.316-4.778-1.634-4.802-1.637l0.129-0.992	c0.104,0.014,2.557,0.346,5.149,1.75L37.405,27.231z"/><ellipse cx="11.52" cy="23.022" fill="#788b9c" rx="1.52" ry="2.015"/><ellipse cx="28.466" cy="22.004" fill="#788b9c" rx="1.506" ry="1.996"/><ellipse cx="20.512" cy="24.983" fill="#f5ce85" rx="1.989" ry="1.481" transform="rotate(-2.987 20.53 25.005)"/><path fill="#967a44" d="M20.449,26.967c-0.578,0-1.129-0.157-1.565-0.448c-0.517-0.345-0.829-0.857-0.857-1.406 c-0.029-0.548,0.229-1.091,0.707-1.487c0.442-0.367,1.038-0.588,1.676-0.62c0.759-0.042,1.488,0.193,1.986,0.642 c0.365,0.329,0.579,0.758,0.602,1.207c0.029,0.548-0.229,1.091-0.707,1.487c-0.442,0.367-1.037,0.588-1.675,0.621h-0.001 C20.56,26.965,20.504,26.967,20.449,26.967z M20.575,24c-0.038,0-0.076,0.001-0.114,0.003c-0.418,0.021-0.815,0.165-1.09,0.392 c-0.137,0.113-0.363,0.351-0.347,0.666s0.267,0.527,0.414,0.626c0.297,0.198,0.712,0.302,1.125,0.277 c0.417-0.022,0.814-0.165,1.089-0.393c0.136-0.113,0.363-0.351,0.347-0.666c-0.013-0.234-0.155-0.41-0.273-0.517 C21.452,24.142,21.028,24,20.575,24z"/><path fill="#ea4c89" d="M24.095,11.309c-1.093,0-1.982-0.889-1.982-1.981s0.89-1.981,1.982-1.981	c0.691,0,1.342,0.368,1.698,0.96l-0.857,0.516c-0.179-0.298-0.493-0.476-0.841-0.476c-0.542,0-0.982,0.44-0.982,0.981	s0.44,0.981,0.982,0.981V11.309z"/><path fill="#ea4c89" d="M30.075,13.951c-0.389,0-0.985-0.251-0.991-0.253l0.395-0.92c0.186,0.08,0.504,0.172,0.597,0.173	c0.625,0,0.929-0.287,0.929-0.877c0-0.483-0.417-0.876-0.929-0.876v-1c1.063,0,1.929,0.842,1.929,1.876	C32.004,13.215,31.247,13.951,30.075,13.951z"/><path fill="#ea4c89" d="M21.446,13.443c-0.725,0-1.118-0.144-1.149-0.155c-2.906-1.349-1.609-5.524-1.553-5.701	c1.667-4.506,3.859-4.294,4.106-4.258c2.797,0.366,3.96,3.178,4.33,4.369l-0.955,0.297c-0.313-1.008-1.281-3.384-3.519-3.676	c-0.03,0.003-1.642-0.125-3.018,3.594c-0.004,0.013-1.079,3.49,0.995,4.454c0-0.001,0-0.001,0-0.001c0.01,0,1.224,0.384,3.464-0.531	l0.379,0.926C23.198,13.304,22.161,13.443,21.446,13.443z"/><path fill="#ea4c89" d="M30.966,16.716c-0.082,0-0.163-0.004-0.245-0.011c-1.41-0.117-2.606-1.006-3.367-2.503l0.891-0.453	c0.607,1.193,1.492,1.871,2.56,1.96c1.354,0.122,2.347-1.146,2.723-1.69c0.465-0.676,1.845-3.001,0.085-4.525	c-0.99-0.856-3.086-0.188-3.94,0.139l-0.357-0.934c1.271-0.488,3.605-1.129,4.952,0.039c1.587,1.375,1.619,3.615,0.085,5.848	C33.411,15.951,32.189,16.716,30.966,16.716z"/><path fill="#788b9c" d="M5.501,15.913l-0.92-0.395c0.658-1.532,2.221-3.389,2.287-3.467l0.764,0.646	C7.616,12.716,6.099,14.519,5.501,15.913z"/><circle cx="27.058" cy="11.021" r="2.964" fill="#ffb5d2"/><path fill="#ea4c89" d="M27.059,14.484c-1.91,0-3.464-1.554-3.464-3.464s1.554-3.464,3.464-3.464	c1.776,0,3.257,1.331,3.443,3.096c0.014,0.118,0.02,0.243,0.02,0.368C30.521,12.931,28.968,14.484,27.059,14.484z M27.059,8.557	c-1.358,0-2.464,1.105-2.464,2.464s1.105,2.464,2.464,2.464s2.463-1.105,2.463-2.464c0-0.088-0.004-0.174-0.014-0.259	C29.375,9.503,28.322,8.557,27.059,8.557z"/></svg>